PathFileType	4	(X/Y/Z)	RBDS025\RBDS025runT25.trc
DataRate	CameraRate	NumFrames	NumMarkers	Units	OrigDataRate	OrigDataStartFrame	OrigNumFrames
150.000000	150.000000	6	33	mm	150.000000	3937	4500
Frame#	Time	L.ASIS			L.Heel.Bottom			L.Heel.Lateral			L.Heel.Top			L.Iliac.Crest			L.MT1			L.MT5			L.PSIS			L.Shank.Bottom.Lateral			L.Shank.Bottom.Medial			L.Shank.Top.Lateral			L.Shank.Top.Medial			L.Thigh.Bottom.Lateral			L.Thigh.Bottom.Medial			L.Thigh.Top.Lateral			L.Thigh.Top.Medial			R.ASIS			R.ASY			R.Heel.Bottom			R.Heel.Lateral			R.Heel.Top			R.Iliac.Crest			R.MT1			R.MT5			R.PSIS			R.Shank.Bottom.Lateral			R.Shank.Bottom.Medial			R.Shank.Top.Lateral			R.Shank.Top.Medial			R.Thigh.Bottom.Lateral			R.Thigh.Bottom.Medial			R.Thigh.Top.Lateral			R.Thigh.Top.Medial			
		X1	Y1	Z1	X2	Y2	Z2	X3	Y3	Z3	X4	Y4	Z4	X5	Y5	Z5	X6	Y6	Z6	X7	Y7	Z7	X8	Y8	Z8	X9	Y9	Z9	X10	Y10	Z10	X11	Y11	Z11	X12	Y12	Z12	X13	Y13	Z13	X14	Y14	Z14	X15	Y15	Z15	X16	Y16	Z16	X17	Y17	Z17	X18	Y18	Z18	X19	Y19	Z19	X20	Y20	Z20	X21	Y21	Z21	X22	Y22	Z22	X23	Y23	Z23	X24	Y24	Z24	X25	Y25	Z25	X26	Y26	Z26	X27	Y27	Z27	X28	Y28	Z28	X29	Y29	Z29	X30	Y30	Z30	X31	Y31	Z31	X32	Y32	Z32	X33	Y33	Z33	

3938	26.24666666666667	2088.386400272454	895.4818955316193	891.4263224867669	1755.223451158096	48.4043289361585	997.569511977185	1778.583723342997	68.14557031084598	950.9860507756456	1771.285213617706	90.80372438092587	998.4038476975767	2012.943475144934	965.714689802592	844.3967793739409	1967.358801591084	35.08017500027677	1004.174490308056	1920.457107518775	42.31828064260524	898.1583059334257	1929.263920771119	953.7473330589006	952.0059372760473	1894.379679873052	166.2178280144444	924.7068018237151	1851.840709788035	197.213501302214	943.0195341606516	1931.012212632988	233.3677440494176	899.1348461177396	1889.178756922033	264.0837367718049	915.2993404030555	2041.248408140068	545.3154273076874	844.9233851645947	1977.424854997342	532.9935652842863	877.5165534436484	2011.873834967665	649.5121519104553	829.2327701815735	1953.733576345735	639.1916721708121	865.9997566418527	2104.064163550494	893.808360855658	1093.55081019329	1829.617378100705	165.1243450740625	1108.843411125104	1688.003295190926	286.648412456526	1065.251040933196	1718.059709467927	285.1917996445226	1109.513404448096	1729.80804536943	303.0368165948405	1064.225818341772	2046.908503900093	953.2441568490245	1140.570063417309	1812.756650898586	112.7108712805172	1072.161752218723	1784.084551119196	154.2156495991684	1171.784134620306	1937.98203976209	947.9439361116806	1053.887511330239	1863.501935910151	316.8099310754485	1131.077000223991	1846.61643834531	350.9496440317896	1096.609889182841	1934.584534467179	362.5842968929713	1138.639165428065	1913.38332205299	395.9819894205652	1103.026774259215	2107.832328067512	532.4944362337303	1154.607700176982	2050.272758923684	513.2762402836935	1116.590655946207	2063.920115191734	633.3106242965499	1169.33018477662	2007.778825402633	612.9072980699942	1135.614010533885	
3939	26.25333333333333	2088.533402299675	898.5122228286166	891.5113198171815	1739.150410057605	52.67389410126818	997.0525170460907	1762.827001466353	71.44863554212216	950.2804486526926	1755.867308773579	94.80477569002674	997.3687095301763	2014.08225234457	969.3877637343514	844.8079701229638	1950.296903952214	35.35748849835225	1004.091949962163	1903.856574339621	42.46650618572442	897.932961965776	1929.804356155342	957.6092775063229	952.3048811711972	1879.370983896542	169.2634916523943	923.9860457865221	1837.056736493599	200.5022609710016	942.5227994748984	1916.509275149162	236.274988084629	898.7299226490304	1874.757775908437	267.2338502533059	914.9682484100738	2032.680589228433	547.7463420064497	845.6685614383553	1968.482041031484	537.2740157545436	878.1516899255626	2006.356518874379	652.6954430478168	829.8543477814666	1947.808886225913	644.062943148367	866.5247384851197	2104.359348588809	898.0584910654667	1093.545005904067	1850.551051561989	159.6313346266785	1107.84435729174	1702.525331952352	273.7718989724802	1065.770757303259	1732.872028206636	273.61989137641	1109.82850282718	1743.485026289394	292.328489256559	1064.597746452752	2047.290790486022	957.7989826391298	1140.776986582911	1836.367527333179	106.6803202169402	1070.838153877222	1806.112418385499	145.8917093910314	1170.861982117489	1938.213972256783	952.1287452530225	1054.284296523666	1877.145068595589	312.169476843172	1130.651404901993	1858.511368222868	345.7149575324489	1096.450343804106	1946.232294730453	361.0046170921789	1138.047606400257	1923.232786377536	393.6145746985498	1102.787044142611	2115.372934278345	539.2660083317071	1154.295070486676	2058.073723376017	518.6814892276393	1116.666951930627	2069.271744947935	638.9396168643968	1169.548255117395	2013.19292382399	617.1254386635146	1136.507706451735	
3940	26.26	2088.939530314846	901.7930901554323	891.7070018956265	1723.369371534522	57.58041872608123	996.4602719699639	1747.37565730198	75.21551425334056	949.4732524112775	1740.840430844753	99.37912311331442	996.1796268729513	2015.416676805111	973.2525995191581	845.2490855754745	1933.291827355516	35.75101186615629	1003.917523696898	1887.38050209005	42.65043531938123	897.6087204550977	1930.615555241737	961.7935578002511	952.5787501045675	1864.576928697978	172.8046114900811	923.015433703133	1822.501507553017	204.2173149339392	941.894061441203	1902.125737172265	239.7290836948714	898.0938344177815	1860.46752736934	270.8604448913987	914.5005426276746	2024.147940865317	550.7282332727012	846.2896180410098	1959.66287946368	542.1520854932007	878.7440142728852	2000.911573883124	656.3567880694447	830.3980353747136	1942.047568202659	649.4434531623415	867.0252319467974	2104.791791593703	902.6618302496759	1093.63864004147	1871.996739308535	154.0145082316203	1106.716756565595	1717.775856608126	260.0847081053305	1065.954802722395	1748.296639690247	261.3116582050341	1109.836858283656	1757.737966197588	280.8364534808457	1064.676731249911	2047.90133466203	962.8192987200182	1141.052246766285	1860.716658113274	100.6454111637663	1069.340630317723	1828.745905226397	137.3868107957151	1169.725768255236	1938.631713961099	956.709685452391	1054.672739352319	1890.878186527783	307.2066008384855	1130.067241511062	1870.442679041033	339.9929715660455	1096.094719799481	1957.665137910113	359.2263808071075	1137.344716468981	1932.836928157277	390.867354926743	1102.395297888746	2122.281307205024	546.43290127509	1153.945206237158	2065.265503213994	524.6066146282758	1116.673009582268	2074.226045079348	644.9833529067557	1169.774943389723	2018.243582480128	621.9114444731516	1137.340024999675	
3941	26.26666666666667	2089.61386554354	905.2481113345482	892.0442365973688	1707.936977264964	63.12330209819898	995.8105851921623	1732.278473256384	79.45601422561505	948.5905093788965	1726.27063075514	104.5114253956282	994.8753412516405	2016.997599805229	977.2651889500255	845.7162768449675	1916.390378434228	36.22941876701802	1003.653555663442	1871.045550587062	42.86861940470948	897.1932793471918	1931.705228741597	966.2413925549936	952.8152121237775	1850.042914853583	176.8148526786551	921.7971891102278	1808.242870543917	208.3269251226068	941.1648291515487	1887.901853853294	243.7036906529513	897.2229396350001	1846.374588063462	274.9326231657552	913.9270120966911	2015.697461064272	554.2257225581704	846.7418305031209	1951.003319780316	547.5700008846277	879.2244704758763	1995.57668412947	660.4608122803913	830.8418163916837	1936.479564748566	655.2780813291777	867.465478095912	2105.340991062081	907.556346586439	1093.859045569919	1893.962804398254	148.3516854420443	1105.472250150722	1733.858724975627	245.6893981316665	1065.780189030811	1764.424476340529	248.3700571887572	1109.519108457066	1772.653841792022	268.6480186925626	1064.432119052022	2048.676283693699	968.2346956500472	1141.406295935841	1885.78153167101	94.70336978834165	1067.715258016572	1851.996357627062	128.8261094124323	1168.413219679817	1939.231194074192	961.6197688552021	1055.041538369903	1904.742100318758	301.9303683218316	1129.317274232634	1882.485329420944	333.7848654550801	1095.529209086846	1968.904862832489	357.2097584074356	1136.534006364958	1942.262400510651	387.6972771164509	1101.840058273456	2128.508943874124	553.8539107924271	1153.565217185296	2071.778842077644	530.9215878103093	1116.615313880782	2078.739125920482	651.3306894732145	1169.998205778408	2022.884737449848	627.167650678496	1138.081157090306	
3942	26.27333333333333	2090.554199940791	908.8030482260556	892.5452993368178	1692.911566268022	69.29183006496598	995.1145263610945	1717.585093574729	84.17405855102021	947.6532236899174	1712.221846276697	110.175102611582	993.4899449450712	2018.879919233581	981.3975757300306	846.2120586119346	1899.642319498621	36.76559349094985	1003.304420900133	1854.866633075613	43.12788593348497	896.6958231683832	1933.069882589133	970.8866749641786	953.0083211080704	1835.812079516955	181.2596002129451	920.3380220147485	1794.34361170845	212.7911316082104	940.3653538193571	1873.876177141756	248.164544449317	896.11978915852	1832.5417044155	279.412077266874	913.2818995276219	2007.367259638651	558.1984709298506	846.9875377016858	1942.530636207482	553.464081794222	879.5329886065995	1990.380953536626	664.9669755204195	831.1698615548006	1931.124299788642	661.5068472747679	867.8169831396706	2105.986458684032	912.6741846674131	1094.226347422543	1916.453285944131	142.7243852687123	1104.120194731222	1750.868961480588	230.6997642780225	1065.230146537265	1781.334221617588	234.9080512005062	1108.862334689629	1788.314489789637	255.8627991416519	1063.842184722755	2049.553138001349	973.9633468263089	1141.842927090046	1911.53646060339	88.95071305022117	1066.002776523635	1875.866502177606	120.3338681135301	1166.957616319144	1940.005898682239	966.7819768664658	1055.385223503424	1918.779089269466	296.3517858089485	1128.399372191401	1894.715854442544	327.1003602464509	1094.74885880338	1979.97915884693	354.9161502715035	1135.624909232462	1951.579840465944	384.0703557514944	1101.119690916922	2134.016443234228	561.3828852036816	1153.160391519678	2077.553287848078	537.4909901971764	1116.500096902479	2082.776135071702	657.8666736521852	1170.200153091958	2027.075567722479	632.7899529825929	1138.699677966697	
3943	26.28	2091.746613293561	912.3885789485884	893.2212235677251	1678.351079286015	76.06757599382816	994.372430911959	1703.344575120136	89.36904204819396	946.6724103343969	1698.75298180029	116.3359313899374	992.0466544754756	2021.112178595928	985.6312321778391	846.7427982649978	1883.096957738725	37.34226310498207	1002.874441748572	1838.85759780082	43.44568271303142	896.12508484505	1934.693944515486	975.6574470680024	953.1574056410849	1821.924901432872	186.0980822532646	918.6485935983478	1780.858046155275	217.5650608791533	939.5195067122454	1860.086749500051	253.0710435754309	894.7931726196904	1819.025916885607	284.2556375389624	912.5979413062979	1999.184603327022	562.6013782213956	847.00138220289	1934.263561164321	559.7672703486131	879.6277144171441	1985.342361149839	669.8294574933536	831.3747015473206	1925.991155528179	668.0668244820646	868.0641978191073	2106.70919550688	917.943147991347	1094.751246953698	1939.46520976913	137.2194564139734	1102.66576487042	1768.887322908472	215.2417268629704	1064.29666234474	1799.090418140461	221.0479097725259	1107.861745953539	1804.792682131523	242.5920808434886	1062.896660015999	2050.476240321156	979.9169852793545	1142.358587594631	1937.949300130457	83.48554199701456	1064.233313505685	1900.350892489616	112.0330197902766	1165.38386314568	1940.947173912841	972.1120596777887	1055.702751895361	1933.03156296154	290.4863987730434	1127.317415620915	1907.209152871109	319.9607285296289	1093.758678745972	1990.922883703182	352.310928551037	1134.633178204379	1960.861609187329	379.9639295541824	1100.244346326535	2138.772841682306	568.8726495283427	1152.735131724291	2082.537983677515	544.1768699587933	1116.33499087487	2086.311278339657	664.4747758571174	1170.359942457213	2030.780216087097	638.6691850873764	1139.167677973951	
